<svg width="1255" height="456" viewBox="0 0 1255 456" fill="none" xmlns="http://www.w3.org/2000/svg">
<path fill-rule="evenodd" clip-rule="evenodd" d="M941.831 132.977C931.303 131.963 920.974 133.018 910.849 136.143C904.833 145.523 896.573 150.8 886.064 151.974C899.38 127.606 917.969 121.274 941.831 132.977Z" fill="#00234D"/>
<path fill-rule="evenodd" clip-rule="evenodd" d="M532.877 75.9871C529.543 86.2276 527.48 96.7816 526.68 107.648C514.969 106.36 505.673 110.581 498.797 120.313C508.267 153.9 496.907 164.454 464.718 151.974C465.644 158.636 464.611 164.968 461.62 170.971C459.555 168.86 457.489 166.749 455.424 164.639C439.02 178.753 435.922 193.528 446.129 208.965C427.628 227.792 429.694 242.567 452.325 253.29C438.964 268.114 423.474 280.779 405.854 291.284C401.723 297.616 401.723 303.948 405.854 310.281C435.802 349.332 469.881 384.159 508.092 414.763C488.248 414.219 469.659 407.886 452.325 395.766C413.617 368.683 376.44 340.188 340.793 310.281C361.322 306.095 377.845 294.488 390.363 275.453C401.797 268.311 414.189 265.144 427.54 265.955C422.32 250.944 420.255 236.169 421.344 221.629C405.231 219.469 389.741 223.69 374.872 234.294C368.244 234.116 363.08 232.005 359.382 227.961C367.892 228.954 376.154 227.898 384.167 224.795C432.921 173.91 482.491 124.308 532.877 75.9871Z" fill="#00234D"/>
<path fill-rule="evenodd" clip-rule="evenodd" d="M886.066 151.974C896.575 150.8 904.835 145.524 910.851 136.144C920.976 133.019 931.305 131.963 941.833 132.978C1043.04 232.183 1142.18 333.501 1239.25 436.926C1223.88 441.726 1207.35 441.726 1189.68 436.926C1148.85 420.285 1109.61 400.231 1071.95 376.77C1025.53 343.006 980.082 308.179 935.636 272.287C931.243 266.563 925.047 264.454 917.048 265.955C913.379 285.781 919.576 300.555 935.636 310.281C948.692 327.353 961.084 345.292 972.814 364.105C970.75 367.271 968.681 370.437 966.618 373.604C945.426 369.861 926.838 361.42 910.851 348.275C907.921 339.371 901.724 335.148 892.263 335.61C834.185 292.145 780.482 242.54 731.16 186.802C714.635 182.58 698.116 182.58 681.59 186.802C638.043 215.364 594.669 243.859 551.469 272.287C532.335 274.206 522.012 265.765 520.488 246.958C522.923 235.663 527.05 225.109 532.88 215.297C540.824 207.646 540.824 199.203 532.88 189.968C529.119 190.751 527.056 192.861 526.684 196.3C504.169 218.362 479.384 237.359 452.329 253.291C429.697 242.567 427.631 227.792 446.133 208.965C435.926 193.529 439.024 178.753 455.427 164.639C457.492 166.75 459.558 168.861 461.623 170.971C464.615 164.968 465.648 158.636 464.722 151.974C496.91 164.455 508.271 153.901 498.801 120.313C505.676 110.582 514.973 106.36 526.684 107.649C527.483 96.7818 529.547 86.2278 532.88 75.9873C554.338 50.8843 577.059 26.6102 601.039 3.16629C613.431 -1.05543 625.824 -1.05543 638.216 3.16629C700.179 70.7106 762.141 138.254 824.104 205.799C848.771 194.441 869.423 176.5 886.066 151.974Z" fill="#00234D"/>
<path fill-rule="evenodd" clip-rule="evenodd" d="M526.684 196.3C527.055 192.861 529.119 190.75 532.88 189.968C540.823 199.203 540.823 207.646 532.88 215.297C534.348 207.122 532.285 200.79 526.684 196.3Z" fill="#00234D"/>
<path fill-rule="evenodd" clip-rule="evenodd" d="M359.385 227.961C363.083 232.005 368.247 234.116 374.876 234.293C389.744 223.69 405.235 219.469 421.348 221.629C420.259 236.168 422.324 250.944 427.544 265.955C414.193 265.144 401.801 268.31 390.367 275.453C377.848 294.488 361.325 306.095 340.797 310.281C334.919 306.152 327.69 304.037 319.11 303.948C306.667 302.726 297.373 306.95 291.227 316.613C287.096 316.613 273.5 323.358 269.369 323.358C260.868 328.187 269.369 323.358 260.245 329.277C190.58 372.261 118.291 410.254 43.3768 443.258C31.0884 445.43 22.8263 441.206 18.5918 430.594C100.295 343.93 182.911 258.445 266.442 174.137C276.769 169.915 287.096 169.915 297.423 174.137C319.108 191.035 339.762 208.977 359.385 227.961Z" fill="#00234D"/>
<path fill-rule="evenodd" clip-rule="evenodd" d="M520.486 246.958C522.01 265.765 532.333 274.206 551.467 272.287C490.866 328.543 480.538 320.102 520.486 246.958Z" fill="#00234D"/>
<path fill-rule="evenodd" clip-rule="evenodd" d="M935.633 272.287C929.456 272.097 925.323 275.263 923.241 281.786C928.904 290.689 933.031 300.187 935.633 310.281C919.573 300.554 913.376 285.781 917.045 265.955C925.044 264.454 931.24 266.563 935.633 272.287Z" fill="#00234D"/>
<path fill-rule="evenodd" clip-rule="evenodd" d="M340.795 310.281C323.834 309.654 307.311 311.769 291.225 316.613C297.371 306.95 306.665 302.727 319.108 303.949C327.688 304.037 334.917 306.152 340.795 310.281Z" fill="#00234D"/>
<path fill-rule="evenodd" clip-rule="evenodd" d="M892.262 335.61C901.723 335.148 907.92 339.371 910.85 348.275C901.389 348.737 895.193 344.513 892.262 335.61Z" fill="#00234D"/>
<path fill-rule="evenodd" clip-rule="evenodd" d="M18.5887 430.594C22.8233 441.207 31.0853 445.43 43.3737 443.259C29.8287 452.535 15.371 454.644 0 449.591C4.26426 441.011 10.4605 434.678 18.5887 430.594Z" fill="#00234D"/>
<path fill-rule="evenodd" clip-rule="evenodd" d="M1189.68 436.926C1207.35 441.726 1223.88 441.726 1239.25 436.926C1258.62 446.171 1259.66 452.503 1242.35 455.923C1223.09 452.541 1205.54 446.209 1189.68 436.926Z" fill="#00234D"/>
</svg>
